<svg xmlns="http://www.w3.org/2000/svg" viewBox="0 0 40 40"><defs><style>.cls-1{fill:#33383b;}.cls-2{fill:#ffe900;}</style></defs><title>Ресурс 2</title><g id="Слой_2"><g id="Слой_1-2"><rect class="cls-1" width="40" height="40"/><rect class="cls-2" x="15.99" y="18.6" width="2.89" height="1.39" rx="0.31"/><rect class="cls-2" x="12.64" y="18.6" width="2.89" height="1.39" rx="0.31"/><rect class="cls-2" x="19.33" y="18.6" width="2.89" height="1.39" rx="0.31"/><rect class="cls-2" x="22.68" y="18.6" width="2.89" height="1.39" rx="0.31"/><rect class="cls-2" x="26.02" y="18.6" width="2.89" height="1.39" rx="0.31"/><path class="cls-2" d="M12.46,17l-.63-.36.63-.36a.32.32,0,0,0,.11-.42l-.39-.67a.3.3,0,0,0-.42-.11l-.62.36v-.72a.31.31,0,0,0-.31-.31h-.77a.31.31,0,0,0-.31.31v.72l-.63-.36a.29.29,0,0,0-.41.11l-.39.67a.3.3,0,0,0,.11.42l.63.36L8.43,17a.3.3,0,0,0-.11.42l.39.67a.29.29,0,0,0,.41.11l.63-.36v.73a.31.31,0,0,0,.31.3h.77a.31.31,0,0,0,.31-.3v-.73l.62.36a.3.3,0,0,0,.42-.11l.39-.67A.32.32,0,0,0,12.46,17Z"/><path class="cls-2" d="M33.13,17l-.63-.36.63-.36a.3.3,0,0,0,.11-.42l-.39-.67a.29.29,0,0,0-.41-.11l-.63.36v-.72a.31.31,0,0,0-.31-.31h-.77a.31.31,0,0,0-.31.31v.72l-.62-.36a.3.3,0,0,0-.42.11l-.39.67a.32.32,0,0,0,.11.42l.63.36L29.1,17a.32.32,0,0,0-.11.42l.39.67a.3.3,0,0,0,.42.11l.62-.36v.73a.31.31,0,0,0,.31.3h.77a.31.31,0,0,0,.31-.3v-.73l.63.36a.29.29,0,0,0,.41-.11l.39-.67A.3.3,0,0,0,33.13,17Z"/><path class="cls-2" d="M36.39,14.84l-4.17,9.44h.84a.82.82,0,0,0,.76-.49L38,14.34h-.84A.83.83,0,0,0,36.39,14.84Z"/><path class="cls-2" d="M6.19,14.84,2,24.28h.84a.83.83,0,0,0,.76-.49l4.16-9.45H7A.83.83,0,0,0,6.19,14.84Z"/></g></g></svg>